g CH0214_Halo
v 0.020070538 -0.10425104 0.08978723
v 0.0075113457 -0.04968817 0.044003565
v 0.019818906 -0.048025742 0.042608622
v 0.013665125 -0.051987436 0.039575327
v 0.026224319 -0.1065503 0.08535898
v 0.0323781 -0.1025886 0.08839227
v 0.110350005 0.07530734 -0.060880058
v 0.051090077 0.045839965 -0.036154013
v 0.09995349 0.08327154 -0.06756281
v 0.10515174 0.07615896 -0.0679522
v 0.056288317 0.038727403 -0.03654341
v 0.061486553 0.03787579 -0.029471278
v 0.035545707 -0.076353714 0.0663786
v 0.08433672 -0.06754188 0.058984604
v 0.041292384 -0.08810484 0.07623897
v 0.03841905 -0.08535976 0.06757801
v 0.07850906 -0.06620812 0.051507886
v 0.07268141 -0.0586134 0.051492717
v 0.10950965 -0.038681976 0.03476828
v 0.10195426 -0.039328992 0.028953638
v 0.09439888 -0.03371504 0.030600527
v 0.11950712 -0.0024979329 0.00440628
v 0.11126556 -0.005628414 0.00067551254
v 0.103024006 -0.0024979305 0.0044062776
v 0.10950967 0.033686105 -0.025955716
v 0.101954274 0.028072158 -0.02760261
v 0.094398886 0.02871918 -0.021787975
v 0.08433674 0.062546015 -0.050172042
v 0.078509085 0.0549513 -0.050156873
v 0.07268143 0.053617533 -0.042680163
v 0.04129239 0.08310901 -0.06742642
v 0.038419053 0.07410295 -0.06622701
v 0.03554571 0.07135787 -0.057566058
v 0.031367205 -0.06780927 0.05920897
v 0.06888154 -0.055702534 0.049050212
v 0.033672176 -0.0725226 0.06316392
v 0.03251969 -0.07329641 0.05745567
v 0.06654409 -0.05704242 0.04381696
v 0.06420665 -0.052121356 0.04604525
v 0.089472465 -0.032095723 0.029241761
v 0.08644204 -0.0342301 0.024675164
v 0.083411604 -0.03010351 0.027570097
v 0.09765019 -0.0024979305 0.0044062776
v 0.09434455 -0.005628413 0.0006755114
v 0.091038905 -0.0024979296 0.0044062766
v 0.08947248 0.027099865 -0.020429207
v 0.086442046 0.022973273 -0.023324136
v 0.08341162 0.025107648 -0.01875754
v 0.068881564 0.050706666 -0.040237654
v 0.066544116 0.045785602 -0.042465944
v 0.06420667 0.047125496 -0.037232697
v 0.033672176 0.06752676 -0.054351375
v 0.032519694 0.062039614 -0.056104667
v 0.03136721 0.06281343 -0.050396428
v -0.027534503 0.10655027 -0.08709596
v -0.006676221 0.046918154 -0.037058715
v -0.018747807 0.044440325 -0.03497957
v -0.012712013 0.04254876 -0.039749913
v -0.033570297 0.10218089 -0.08978718
v -0.03960609 0.10407247 -0.08501686
v -0.1500837 0.0018240198 0.00077973277
v -0.0809804 0.001824024 0.00077972945
v -0.0809804 -0.009439032 0.010230551
v -0.0809804 -0.006937987 0.0017743739
v -0.1500837 -0.00693799 0.0017743766
v -0.1500837 -0.009439035 0.010230553
v -0.101026 -0.088284284 0.076389536
v -0.056607265 -0.04773278 0.0423628
v -0.045344215 -0.054972533 0.048437674
v -0.050975736 -0.054483134 0.04166947
v -0.09539448 -0.09503464 0.0756962
v -0.08976296 -0.095524035 0.082464404
v 0.027534503 0.10655027 -0.08709596
v 0.039606094 0.10407247 -0.08501686
v 0.018747807 0.044440325 -0.03497957
v 0.006676221 0.046918154 -0.037058715
v 0.033570297 0.10218089 -0.08978718
v 0.012712013 0.04254876 -0.039749913
v 0.1500837 0.0018240198 0.00077973277
v 0.1500837 -0.009439035 0.010230553
v 0.0809804 -0.009439032 0.010230551
v 0.0809804 0.001824024 0.00077972945
v 0.1500837 -0.00693799 0.0017743766
v 0.0809804 -0.006937987 0.0017743739
v 0.101026006 -0.088284284 0.076389536
v 0.08976296 -0.095524035 0.082464404
v 0.045344207 -0.054972533 0.048437674
v 0.05660726 -0.04773278 0.0423628
v 0.095394485 -0.09503464 0.0756962
v 0.050975733 -0.054483134 0.04166947
v -0.020070538 -0.10425104 0.08978723
v -0.0323781 -0.1025886 0.08839227
v -0.019818904 -0.048025742 0.042608622
v -0.007511345 -0.04968817 0.044003565
v -0.026224319 -0.1065503 0.08535898
v -0.013665125 -0.051987436 0.039575327
v -0.11035 0.07530734 -0.060880058
v -0.09995349 0.08327154 -0.06756281
v -0.05109008 0.045839965 -0.036154013
v -0.061486557 0.03787579 -0.029471278
v -0.10515174 0.07615896 -0.0679522
v -0.05628832 0.038727403 -0.03654341
v -0.035545707 -0.076353714 0.0663786
v -0.04129239 -0.08810484 0.07623897
v -0.08433672 -0.06754188 0.058984604
v -0.03841905 -0.08535976 0.06757801
v -0.07268141 -0.0586134 0.051492717
v -0.07850907 -0.06620812 0.051507886
v -0.10950964 -0.038681976 0.03476828
v -0.09439888 -0.03371504 0.030600527
v -0.10195425 -0.039328992 0.028953638
v -0.11950711 -0.0024979329 0.00440628
v -0.103024006 -0.0024979305 0.0044062776
v -0.111265555 -0.005628414 0.00067551254
v -0.109509654 0.033686105 -0.025955716
v -0.094398886 0.02871918 -0.021787975
v -0.10195427 0.028072158 -0.02760261
v -0.08433674 0.062546015 -0.050172042
v -0.07268143 0.053617533 -0.042680163
v -0.07850909 0.0549513 -0.050156873
v -0.041292395 0.08310901 -0.06742642
v -0.035545707 0.07135787 -0.057566058
v -0.038419053 0.07410295 -0.06622701
v -0.031367205 -0.06780927 0.05920897
v -0.033672176 -0.0725226 0.06316392
v -0.06888154 -0.055702534 0.049050212
v -0.03251969 -0.07329641 0.05745567
v -0.06420665 -0.052121356 0.04604525
v -0.0665441 -0.05704242 0.04381696
v -0.089472465 -0.032095723 0.029241761
v -0.083411604 -0.03010351 0.027570097
v -0.08644203 -0.0342301 0.024675164
v -0.09765019 -0.0024979305 0.0044062776
v -0.091038905 -0.0024979296 0.0044062766
v -0.09434455 -0.005628413 0.0006755114
v -0.08947247 0.027099865 -0.020429207
v -0.083411604 0.025107648 -0.01875754
v -0.086442046 0.022973273 -0.023324136
v -0.068881564 0.050706666 -0.040237654
v -0.064206675 0.047125496 -0.037232697
v -0.06654412 0.045785602 -0.042465944
v -0.033672176 0.06752676 -0.054351375
v -0.03136721 0.06281343 -0.050396428
v -0.032519694 0.062039614 -0.056104667
v -0 -0.050707117 0.04485856
v -0 -0.0585263 0.051419634
v -0.036569927 -0.051019922 0.04512104
v -0.031466313 -0.0442483 0.039438978
v 0.036569927 -0.051019922 0.04512104
v -0.034018118 -0.050764594 0.03854924
v -0 -0.057747185 0.04440833
v 0.034018118 -0.050764594 0.03854924
v 0.031466313 -0.0442483 0.039438978
v 0.063340954 -0.030512113 0.027912954
v 0.0589211 -0.031687796 0.022541918
v 0.054501235 -0.026602518 0.024632419
v 0.07313984 -0.0024979275 0.004406275
v 0.06803623 -0.0056284093 0.000675509
v 0.06293261 -0.0024979264 0.0044062743
v 0.06334096 0.025516257 -0.019100403
v 0.058921102 0.020430977 -0.0211909
v 0.054501243 0.021606665 -0.015819868
v 0.03656994 0.04602407 -0.036308493
v 0.034018133 0.039507784 -0.037198234
v 0.031466324 0.039252453 -0.030626437
v -0 0.05353046 -0.042607095
v -0 0.046490382 -0.043057326
v -0 0.045711268 -0.036046024
v -0.031466324 0.039252453 -0.030626437
v -0.034018133 0.039507784 -0.037198234
v -0.03656994 0.04602407 -0.036308493
v -0.058921106 0.020430977 -0.0211909
v -0.054501247 0.021606665 -0.015819868
v -0.06334097 0.025516257 -0.019100403
v -0.06803623 -0.0056284093 0.000675509
v -0.06293262 -0.0024979264 0.0044062743
v -0.07313984 -0.0024979275 0.004406275
v -0.058921102 -0.031687796 0.022541918
v -0.054501243 -0.026602518 0.024632419
v -0.063340954 -0.030512113 0.027912954
vt 0.5615084 0.92097175
vt 0.52301943 0.7026893
vt 0.5607373 0.6960386
vt 0.54187834 0.69936395
vt 0.58036745 0.9176464
vt 0.59922636 0.91432106
vt 0.83818007 0.20263633
vt 0.6565713 0.32052255
vt 0.8063188 0.17077501
vt 0.8222495 0.18670565
vt 0.672502 0.33645317
vt 0.6884325 0.35238376
vt 0.60893387 0.8093666
vt 0.75845945 0.77411425
vt 0.6265452 0.85637784
vt 0.61773956 0.8328723
vt 0.74059993 0.7562548
vt 0.7227405 0.73839533
vt 0.8356047 0.65865827
vt 0.8124504 0.648723
vt 0.78929603 0.63878775
vt 0.8662431 0.5139016
vt 0.84098595 0.5139016
vt 0.8157287 0.5139016
vt 0.8356048 0.36914486
vt 0.8124504 0.37908012
vt 0.78929603 0.3890154
vt 0.7584595 0.25368887
vt 0.7406 0.27154833
vt 0.7227405 0.28940785
vt 0.6265452 0.17142527
vt 0.61773956 0.19493084
vt 0.60893387 0.21843645
vt 0.59612834 0.77518404
vt 0.7110953 0.72675014
vt 0.6031922 0.79403996
vt 0.5996603 0.78461194
vt 0.7039319 0.71958685
vt 0.6967686 0.71242344
vt 0.7741986 0.63230956
vt 0.7649115 0.6283245
vt 0.7556243 0.6243396
vt 0.79926014 0.5139016
vt 0.7891296 0.5139016
vt 0.7789991 0.5139016
vt 0.7741986 0.3954936
vt 0.7649115 0.39947858
vt 0.7556243 0.40346357
vt 0.71109533 0.301053
vt 0.703932 0.30821633
vt 0.69676864 0.31537968
vt 0.60319215 0.23376307
vt 0.5996603 0.24319108
vt 0.59612834 0.2526191
vt 0.41561738 0.07764688
vt 0.47953996 0.3162092
vt 0.4425452 0.3261219
vt 0.46104258 0.32116553
vt 0.39712 0.08260319
vt 0.37862265 0.08755951
vt 0.040051464 0.49661133
vt 0.2518264 0.4966113
vt 0.2518264 0.54166985
vt 0.2518264 0.5191406
vt 0.040051464 0.5191406
vt 0.040051464 0.54166996
vt 0.1903944 0.8570956
vt 0.32652065 0.69486666
vt 0.36103752 0.72382975
vt 0.3437791 0.7093482
vt 0.20765284 0.87157714
vt 0.22491126 0.8860588
vt 0.5843826 0.07764688
vt 0.62137735 0.08755951
vt 0.5574548 0.3261219
vt 0.52046 0.3162092
vt 0.60287994 0.08260319
vt 0.5389574 0.32116553
vt 0.9599485 0.4966113
vt 0.9599485 0.54166985
vt 0.7481736 0.54166985
vt 0.7481736 0.4966113
vt 0.9599485 0.5191406
vt 0.7481736 0.5191406
vt 0.80960566 0.8570956
vt 0.7750888 0.8860588
vt 0.63896245 0.72382975
vt 0.6734794 0.69486666
vt 0.79234725 0.87157714
vt 0.6562209 0.7093482
vt 0.43849155 0.92097175
vt 0.40077364 0.91432106
vt 0.43926272 0.6960386
vt 0.47698063 0.7026893
vt 0.41963258 0.9176464
vt 0.4581217 0.69936395
vt 0.16181992 0.20263633
vt 0.1936812 0.17077501
vt 0.34342864 0.32052255
vt 0.3115675 0.3523838
vt 0.17775054 0.18670565
vt 0.32749805 0.33645317
vt 0.39106616 0.8093666
vt 0.3734548 0.85637784
vt 0.24154058 0.77411425
vt 0.3822605 0.8328723
vt 0.27725956 0.73839533
vt 0.25940007 0.7562548
vt 0.1643953 0.65865827
vt 0.21070394 0.63878775
vt 0.18754967 0.648723
vt 0.1337569 0.5139016
vt 0.18427128 0.5139016
vt 0.1590141 0.5139016
vt 0.16439521 0.3691449
vt 0.21070391 0.3890154
vt 0.18754959 0.37908015
vt 0.24154046 0.25368887
vt 0.2772595 0.28940785
vt 0.25939998 0.27154833
vt 0.37345475 0.17142527
vt 0.39106613 0.21843645
vt 0.38226047 0.19493084
vt 0.40387166 0.77518404
vt 0.3968078 0.79403996
vt 0.28890473 0.72675014
vt 0.40033972 0.78461194
vt 0.30323145 0.71242344
vt 0.2960681 0.71958685
vt 0.2258015 0.63230956
vt 0.2443757 0.6243396
vt 0.23508863 0.6283246
vt 0.2007399 0.5139016
vt 0.22100095 0.5139016
vt 0.21087043 0.5139016
vt 0.22580145 0.3954936
vt 0.24437568 0.40346357
vt 0.23508854 0.39947858
vt 0.2889046 0.301053
vt 0.30323136 0.31537968
vt 0.29606798 0.30821636
vt 0.39680776 0.23376307
vt 0.40387166 0.2526191
vt 0.40033972 0.24319108
vt 0.5 0.70676565
vt 0.5 0.73804677
vt 0.38792732 0.7080171
vt 0.4035679 0.6809268
vt 0.6120727 0.7080171
vt 0.39574763 0.69447184
vt 0.5 0.72240627
vt 0.60425234 0.69447184
vt 0.5964321 0.6809268
vt 0.6941156 0.6259742
vt 0.68057036 0.6181539
vt 0.6670252 0.61033356
vt 0.72414535 0.5139016
vt 0.70850474 0.5139016
vt 0.6928641 0.5139016
vt 0.6941156 0.4018289
vt 0.6805704 0.40964922
vt 0.66702527 0.4174695
vt 0.6120727 0.319786
vt 0.6042524 0.33333117
vt 0.5964321 0.34687635
vt 0.5 0.28975618
vt 0.5 0.3053968
vt 0.5 0.32103738
vt 0.40356788 0.34687635
vt 0.39574757 0.33333117
vt 0.38792726 0.319786
vt 0.31942958 0.40964922
vt 0.33297476 0.4174695
vt 0.30588442 0.40182894
vt 0.29149526 0.5139016
vt 0.30713582 0.5139016
vt 0.27585465 0.5139016
vt 0.3194296 0.6181539
vt 0.33297476 0.61033356
vt 0.30588445 0.6259742
vn -0.68697834 -0.34069347 0.6418635
vn -0.8759224 0.48016515 -0.046918295
vn 0.68697906 0.69127244 -0.2240585
vn -0.102703325 -0.07211854 -0.9920942
vn 0.10270321 -0.9644984 -0.24329999
vn 0.87592256 -0.12958582 0.4647228
vn 0.9523764 0.013880993 0.30460852
vn -0.95237666 0.2975696 0.06656582
vn -0.18516476 0.8852887 -0.42658868
vn 0.42524892 -0.18779728 -0.88537866
vn -0.42524856 -0.83931655 -0.33869064
vn 0.18516316 -0.5738377 0.79776245
vn -0.8362345 0.5318563 -0.13356906
vn 0.6773602 -0.3822352 0.6285534
vn -0.14211552 -0.60591245 0.7827345
vn -0.54644036 -0.7107437 -0.44299692
vn 0.04679844 -0.67951375 -0.7321687
vn -0.6615152 0.7205066 -0.20800915
vn 0.8946617 -0.13583837 0.42559165
vn 0.056846157 -0.6595752 -0.74948597
vn -0.8795242 0.47578195 -0.008293747
vn 0.97171146 0.15180784 0.18091796
vn 0.067271374 -0.6413313 -0.7643093
vn -0.9530031 0.19473946 0.23208115
vn 0.89466184 0.44271392 -0.059870902
vn 0.056846358 -0.62356496 -0.779702
vn -0.8795243 -0.09078688 0.46711314
vn 0.6773606 0.6853787 -0.26728028
vn 0.04679878 -0.60304826 -0.79633075
vn -0.6615157 -0.32996428 0.67343944
vn -0.14211528 0.87605894 -0.46078613
vn -0.54644006 -0.31284666 -0.776872
vn -0.83623475 -0.22389609 0.5005816
vn -0.81118685 0.582709 0.049256664
vn 0.6305502 -0.22408366 0.7430969
vn -0.17905362 -0.456252 0.8716501
vn -0.48550442 -0.7438709 -0.4592836
vn 0.07560149 -0.70056504 -0.7095725
vn -0.5914471 0.80629534 0.008845054
vn 0.8320339 0.0072233016 0.5546778
vn 0.09183064 -0.66870266 -0.7378374
vn -0.78788364 0.587562 0.18441893
vn 0.9048168 0.27369946 0.32618266
vn 0.108670965 -0.6389806 -0.76150787
vn -0.85174686 0.33679086 0.40137163
vn 0.8320341 0.5449963 0.10343246
vn 0.09183041 -0.6105086 -0.7866679
vn -0.7878837 0.07958793 0.61065954
vn 0.63055056 0.7707191 -0.09164104
vn 0.07560174 -0.5771395 -0.8131386
vn -0.59144735 -0.13130173 0.7955814
vn -0.17905359 0.93763554 -0.2979588
vn -0.48550436 -0.3231326 -0.81232446
vn -0.81118673 -0.052678864 0.5824096
vn 0.6256605 0.735175 -0.26089588
vn 0.90727603 -0.06994408 0.41467816
vn -0.62565935 -0.38459638 0.6787017
vn 0.1530773 -0.9559435 -0.25047803
vn -0.15307617 -0.08067314 -0.984916
vn -0.90727586 0.42052433 0.0031252436
vn -0.5425011 0.7719037 -0.3314473
vn 0.54250073 0.7719039 -0.33144736
vn 0.54250103 -0.46045172 0.70262146
vn 0.60139245 -0.5135574 -0.61203426
vn -0.60139245 -0.51355743 -0.61203426
vn -0.54250103 -0.46045178 0.70262134
vn -0.96489054 0.23344484 0.120373264
vn -0.26746505 0.8701501 -0.41388556
vn 0.9648904 0.07800713 0.2508013
vn 0.38656798 -0.16064514 -0.9081621
vn -0.38656723 -0.8664689 -0.3159073
vn 0.2674641 -0.5586982 0.78506
vn -0.6256604 0.7351751 -0.2608959
vn 0.90727574 0.42052445 0.0031251214
vn 0.6256593 -0.38459632 0.67870176
vn -0.90727603 -0.06994399 0.41467825
vn 0.15307608 -0.08067317 -0.984916
vn -0.1530774 -0.9559435 -0.25047806
vn 0.5425011 0.7719037 -0.3314473
vn 0.54250103 -0.46045178 0.70262134
vn -0.54250103 -0.46045172 0.70262146
vn -0.54250073 0.7719039 -0.33144736
vn 0.60139245 -0.51355743 -0.61203426
vn -0.6013924 -0.5135573 -0.61203426
vn 0.96489054 0.23344448 0.12037343
vn -0.26746434 -0.5586983 0.78505987
vn -0.9648904 0.07800691 0.2508012
vn 0.26746514 0.8701501 -0.41388556
vn 0.38656744 -0.8664689 -0.31590688
vn -0.3865678 -0.16064519 -0.9081621
vn 0.6869783 -0.34069344 0.6418635
vn -0.87592256 -0.12958568 0.4647228
vn -0.68697906 0.6912725 -0.22405845
vn 0.8759225 0.48016515 -0.046918135
vn -0.10270322 -0.9644984 -0.24330002
vn 0.10270329 -0.072118595 -0.9920942
vn -0.95237637 0.013881091 0.30460882
vn 0.18516468 0.8852889 -0.4265884
vn 0.95237654 0.29756975 0.06656598
vn -0.18516332 -0.57383746 0.79776263
vn -0.4252493 -0.18779728 -0.8853786
vn 0.42524853 -0.8393166 -0.33869055
vn 0.8362347 0.5318561 -0.13356906
vn 0.14211552 -0.6059123 0.7827346
vn -0.67736036 -0.38223502 0.6285534
vn 0.5464405 -0.7107438 -0.44299665
vn 0.6615153 0.72050655 -0.20800905
vn -0.04679846 -0.67951375 -0.7321687
vn -0.8946617 -0.13583814 0.42559183
vn 0.8795243 0.4757817 -0.008293613
vn -0.056845993 -0.6595752 -0.74948597
vn -0.97171146 0.15180786 0.18091801
vn 0.95300305 0.19473962 0.2320811
vn -0.067271136 -0.6413313 -0.7643092
vn -0.89466184 0.44271407 -0.059870474
vn 0.87952435 -0.0907865 0.4671131
vn -0.05684617 -0.6235651 -0.779702
vn -0.6773606 0.6853787 -0.26728016
vn 0.6615157 -0.32996425 0.67343944
vn -0.04679881 -0.60304826 -0.7963307
vn 0.14211497 0.8760592 -0.46078598
vn 0.8362349 -0.22389585 0.5005814
vn 0.5464401 -0.31284648 -0.7768721
vn 0.81118673 0.58270895 0.049256682
vn 0.1790537 -0.456252 0.8716501
vn -0.6305503 -0.22408374 0.7430967
vn 0.48550445 -0.743871 -0.45928353
vn 0.5914471 0.8062953 0.008845345
vn -0.07560137 -0.70056504 -0.7095725
vn -0.83203393 0.00722317 0.5546776
vn 0.7878834 0.5875621 0.18441932
vn -0.091830045 -0.66870254 -0.7378375
vn -0.9048168 0.27369946 0.32618266
vn 0.8517468 0.33679095 0.40137163
vn -0.1086711 -0.6389806 -0.76150787
vn -0.83203393 0.5449965 0.103432775
vn 0.78788394 0.0795876 0.6106593
vn -0.09183101 -0.6105084 -0.78666806
vn -0.63055044 0.7707193 -0.09164082
vn 0.5914475 -0.13130173 0.7955814
vn -0.075602144 -0.5771393 -0.8131387
vn 0.17905343 0.93763554 -0.2979588
vn 0.81118685 -0.052678876 0.5824095
vn 0.48550436 -0.32313251 -0.81232446
vn -0 0.9700827 -0.24277446
vn -0 -0.51307684 0.8583427
vn -0.47238573 -0.41611433 0.77698165
vn 0.44958946 0.8777996 -0.1653397
vn 0.47238585 -0.4161143 0.7769816
vn -0.056842368 -0.7140402 -0.69779336
vn -0 -0.72570765 -0.6880032
vn 0.056842443 -0.7140402 -0.69779336
vn -0.44958964 0.8777996 -0.16533965
vn 0.8181963 -0.15120806 0.55469906
vn 0.09845401 -0.6821639 -0.72454065
vn -0.7787118 0.6256772 0.046215903
vn 0.9447716 0.21066019 0.25105542
vn 0.113684915 -0.63862014 -0.7610782
vn -0.8991791 0.28127143 0.33520642
vn 0.8181963 0.57252884 -0.05258807
vn 0.09845399 -0.5950763 -0.7976158
vn -0.77871215 -0.06313441 0.6241967
vn 0.47238603 0.8374351 -0.27487057
vn 0.05684263 -0.5631997 -0.82436347
vn -0.44958988 -0.3152569 0.83575237
vn -0 0.93439764 -0.35623157
vn -0 -0.551532 -0.83415365
vn -0 -0.40754014 0.9131873
vn 0.44958982 -0.3152569 0.83575237
vn -0.056842618 -0.5631996 -0.82436347
vn -0.47238603 0.8374351 -0.27487066
vn -0.09845409 -0.59507614 -0.7976158
vn 0.7787122 -0.06313441 0.6241966
vn -0.81819636 0.57252884 -0.052588012
vn -0.113685094 -0.63862014 -0.76107824
vn 0.8991791 0.28127158 0.3352064
vn -0.9447716 0.21066044 0.2510556
vn -0.098454066 -0.68216395 -0.72454065
vn 0.77871186 0.62567717 0.046215806
vn -0.81819606 -0.15120809 0.55469924
g CH0214_Halo_0
f 3/3/3 2/2/2 1/1/1
f 1/1/1 2/2/2 4/4/4
f 2/2/2 3/3/3 4/4/4
f 5/5/5 1/1/1 4/4/4
f 4/4/4 3/3/3 5/5/5
f 6/6/6 3/3/3 1/1/1
f 3/3/3 6/6/6 5/5/5
f 6/6/6 1/1/1 5/5/5
f 9/9/9 8/8/8 7/7/7
f 9/9/9 7/7/7 10/10/10
f 8/8/8 9/9/9 10/10/10
f 10/10/10 7/7/7 11/11/11
f 11/11/11 8/8/8 10/10/10
f 8/8/8 12/12/12 7/7/7
f 7/7/7 12/12/12 11/11/11
f 12/12/12 8/8/8 11/11/11
f 15/15/15 14/14/14 13/13/13
f 15/15/15 13/13/13 16/16/16
f 14/14/14 15/15/15 16/16/16
f 16/16/16 13/13/13 17/17/17
f 17/17/17 14/14/14 16/16/16
f 14/14/14 18/18/18 13/13/13
f 13/13/13 18/18/18 17/17/17
f 19/19/19 14/14/14 17/17/17
f 14/14/14 19/19/19 18/18/18
f 17/17/17 18/18/18 20/20/20
f 20/20/20 19/19/19 17/17/17
f 19/19/19 21/21/21 18/18/18
f 18/18/18 21/21/21 20/20/20
f 22/22/22 19/19/19 20/20/20
f 19/19/19 22/22/22 21/21/21
f 20/20/20 21/21/21 23/23/23
f 23/23/23 22/22/22 20/20/20
f 22/22/22 24/24/24 21/21/21
f 21/21/21 24/24/24 23/23/23
f 25/25/25 22/22/22 23/23/23
f 22/22/22 25/25/25 24/24/24
f 23/23/23 24/24/24 26/26/26
f 26/26/26 25/25/25 23/23/23
f 25/25/25 27/27/27 24/24/24
f 24/24/24 27/27/27 26/26/26
f 28/28/28 25/25/25 26/26/26
f 25/25/25 28/28/28 27/27/27
f 26/26/26 27/27/27 29/29/29
f 29/29/29 28/28/28 26/26/26
f 28/28/28 30/30/30 27/27/27
f 27/27/27 30/30/30 29/29/29
f 31/31/31 28/28/28 29/29/29
f 28/28/28 31/31/31 30/30/30
f 32/32/32 31/31/31 29/29/29
f 29/29/29 30/30/30 32/32/32
f 31/31/31 33/33/33 30/30/30
f 30/30/30 33/33/33 32/32/32
f 33/33/33 31/31/31 32/32/32
f 36/36/36 35/35/35 34/34/34
f 36/36/36 34/34/34 37/37/37
f 35/35/35 36/36/36 37/37/37
f 37/37/37 34/34/34 38/38/38
f 38/38/38 35/35/35 37/37/37
f 35/35/35 39/39/39 34/34/34
f 34/34/34 39/39/39 38/38/38
f 40/40/40 35/35/35 38/38/38
f 35/35/35 40/40/40 39/39/39
f 38/38/38 39/39/39 41/41/41
f 41/41/41 40/40/40 38/38/38
f 40/40/40 42/42/42 39/39/39
f 39/39/39 42/42/42 41/41/41
f 43/43/43 40/40/40 41/41/41
f 40/40/40 43/43/43 42/42/42
f 41/41/41 42/42/42 44/44/44
f 44/44/44 43/43/43 41/41/41
f 43/43/43 45/45/45 42/42/42
f 42/42/42 45/45/45 44/44/44
f 46/46/46 43/43/43 44/44/44
f 43/43/43 46/46/46 45/45/45
f 44/44/44 45/45/45 47/47/47
f 47/47/47 46/46/46 44/44/44
f 46/46/46 48/48/48 45/45/45
f 45/45/45 48/48/48 47/47/47
f 49/49/49 46/46/46 47/47/47
f 46/46/46 49/49/49 48/48/48
f 47/47/47 48/48/48 50/50/50
f 50/50/50 49/49/49 47/47/47
f 49/49/49 51/51/51 48/48/48
f 48/48/48 51/51/51 50/50/50
f 52/52/52 49/49/49 50/50/50
f 49/49/49 52/52/52 51/51/51
f 53/53/53 52/52/52 50/50/50
f 50/50/50 51/51/51 53/53/53
f 52/52/52 54/54/54 51/51/51
f 51/51/51 54/54/54 53/53/53
f 54/54/54 52/52/52 53/53/53
f 57/57/57 56/56/56 55/55/55
f 55/55/55 56/56/56 58/58/58
f 56/56/56 57/57/57 58/58/58
f 59/59/59 55/55/55 58/58/58
f 58/58/58 57/57/57 59/59/59
f 60/60/60 57/57/57 55/55/55
f 57/57/57 60/60/60 59/59/59
f 60/60/60 55/55/55 59/59/59
f 63/63/63 62/62/62 61/61/61
f 61/61/61 62/62/62 64/64/64
f 62/62/62 63/63/63 64/64/64
f 65/65/65 61/61/61 64/64/64
f 64/64/64 63/63/63 65/65/65
f 66/66/66 63/63/63 61/61/61
f 63/63/63 66/66/66 65/65/65
f 66/66/66 61/61/61 65/65/65
f 69/69/69 68/68/68 67/67/67
f 67/67/67 68/68/68 70/70/70
f 68/68/68 69/69/69 70/70/70
f 71/71/71 67/67/67 70/70/70
f 70/70/70 69/69/69 71/71/71
f 72/72/72 69/69/69 67/67/67
f 69/69/69 72/72/72 71/71/71
f 72/72/72 67/67/67 71/71/71
f 75/75/75 74/74/74 73/73/73
f 76/76/76 75/75/75 73/73/73
f 73/73/73 74/74/74 77/77/77
f 76/76/76 73/73/73 77/77/77
f 75/75/75 76/76/76 78/78/78
f 74/74/74 75/75/75 78/78/78
f 78/78/78 76/76/76 77/77/77
f 77/77/77 74/74/74 78/78/78
f 81/81/81 80/80/80 79/79/79
f 82/82/82 81/81/81 79/79/79
f 79/79/79 80/80/80 83/83/83
f 82/82/82 79/79/79 83/83/83
f 81/81/81 82/82/82 84/84/84
f 80/80/80 81/81/81 84/84/84
f 84/84/84 82/82/82 83/83/83
f 83/83/83 80/80/80 84/84/84
f 87/87/87 86/86/86 85/85/85
f 88/88/88 87/87/87 85/85/85
f 85/85/85 86/86/86 89/89/89
f 88/88/88 85/85/85 89/89/89
f 87/87/87 88/88/88 90/90/90
f 86/86/86 87/87/87 90/90/90
f 90/90/90 88/88/88 89/89/89
f 89/89/89 86/86/86 90/90/90
f 93/93/93 92/92/92 91/91/91
f 94/94/94 93/93/93 91/91/91
f 91/91/91 92/92/92 95/95/95
f 94/94/94 91/91/91 95/95/95
f 93/93/93 94/94/94 96/96/96
f 92/92/92 93/93/93 96/96/96
f 96/96/96 94/94/94 95/95/95
f 95/95/95 92/92/92 96/96/96
f 99/99/99 98/98/98 97/97/97
f 100/100/100 99/99/99 97/97/97
f 97/97/97 98/98/98 101/101/101
f 100/100/100 97/97/97 101/101/101
f 99/99/99 100/100/100 102/102/102
f 98/98/98 99/99/99 102/102/102
f 102/102/102 100/100/100 101/101/101
f 101/101/101 98/98/98 102/102/102
f 105/105/105 104/104/104 103/103/103
f 103/103/103 104/104/104 106/106/106
f 107/107/107 103/103/103 106/106/106
f 107/107/107 105/105/105 103/103/103
f 106/106/106 104/104/104 108/108/108
f 104/104/104 105/105/105 108/108/108
f 108/108/108 107/107/107 106/106/106
f 109/109/109 105/105/105 107/107/107
f 110/110/110 107/107/107 108/108/108
f 110/110/110 109/109/109 107/107/107
f 108/108/108 105/105/105 111/111/111
f 105/105/105 109/109/109 111/111/111
f 111/111/111 110/110/110 108/108/108
f 112/112/112 109/109/109 110/110/110
f 113/113/113 110/110/110 111/111/111
f 113/113/113 112/112/112 110/110/110
f 111/111/111 109/109/109 114/114/114
f 109/109/109 112/112/112 114/114/114
f 114/114/114 113/113/113 111/111/111
f 115/115/115 112/112/112 113/113/113
f 116/116/116 113/113/113 114/114/114
f 116/116/116 115/115/115 113/113/113
f 114/114/114 112/112/112 117/117/117
f 112/112/112 115/115/115 117/117/117
f 117/117/117 116/116/116 114/114/114
f 118/118/118 115/115/115 116/116/116
f 119/119/119 116/116/116 117/117/117
f 119/119/119 118/118/118 116/116/116
f 117/117/117 115/115/115 120/120/120
f 115/115/115 118/118/118 120/120/120
f 120/120/120 119/119/119 117/117/117
f 121/121/121 118/118/118 119/119/119
f 122/122/122 119/119/119 120/120/120
f 122/122/122 121/121/121 119/119/119
f 118/118/118 121/121/121 123/123/123
f 120/120/120 118/118/118 123/123/123
f 121/121/121 122/122/122 123/123/123
f 123/123/123 122/122/122 120/120/120
f 126/126/126 125/125/125 124/124/124
f 124/124/124 125/125/125 127/127/127
f 128/128/128 124/124/124 127/127/127
f 128/128/128 126/126/126 124/124/124
f 127/127/127 125/125/125 129/129/129
f 125/125/125 126/126/126 129/129/129
f 129/129/129 128/128/128 127/127/127
f 130/130/130 126/126/126 128/128/128
f 131/131/131 128/128/128 129/129/129
f 131/131/131 130/130/130 128/128/128
f 129/129/129 126/126/126 132/132/132
f 126/126/126 130/130/130 132/132/132
f 132/132/132 131/131/131 129/129/129
f 133/133/133 130/130/130 131/131/131
f 134/134/134 131/131/131 132/132/132
f 134/134/134 133/133/133 131/131/131
f 132/132/132 130/130/130 135/135/135
f 130/130/130 133/133/133 135/135/135
f 135/135/135 134/134/134 132/132/132
f 136/136/136 133/133/133 134/134/134
f 137/137/137 134/134/134 135/135/135
f 137/137/137 136/136/136 134/134/134
f 135/135/135 133/133/133 138/138/138
f 133/133/133 136/136/136 138/138/138
f 138/138/138 137/137/137 135/135/135
f 139/139/139 136/136/136 137/137/137
f 140/140/140 137/137/137 138/138/138
f 140/140/140 139/139/139 137/137/137
f 138/138/138 136/136/136 141/141/141
f 136/136/136 139/139/139 141/141/141
f 141/141/141 140/140/140 138/138/138
f 142/142/142 139/139/139 140/140/140
f 143/143/143 140/140/140 141/141/141
f 143/143/143 142/142/142 140/140/140
f 139/139/139 142/142/142 144/144/144
f 141/141/141 139/139/139 144/144/144
f 142/142/142 143/143/143 144/144/144
f 144/144/144 143/143/143 141/141/141
f 147/147/147 146/146/146 145/145/145
f 148/148/148 147/147/147 145/145/145
f 146/146/146 149/149/149 145/145/145
f 146/146/146 147/147/147 150/150/150
f 149/149/149 146/146/146 151/151/151
f 151/151/151 146/146/146 150/150/150
f 148/148/148 145/145/145 151/151/151
f 150/150/150 148/148/148 151/151/151
f 151/151/151 145/145/145 152/152/152
f 152/152/152 149/149/149 151/151/151
f 149/149/149 153/153/153 145/145/145
f 145/145/145 153/153/153 152/152/152
f 154/154/154 149/149/149 152/152/152
f 149/149/149 154/154/154 153/153/153
f 152/152/152 153/153/153 155/155/155
f 155/155/155 154/154/154 152/152/152
f 154/154/154 156/156/156 153/153/153
f 153/153/153 156/156/156 155/155/155
f 157/157/157 154/154/154 155/155/155
f 154/154/154 157/157/157 156/156/156
f 155/155/155 156/156/156 158/158/158
f 158/158/158 157/157/157 155/155/155
f 157/157/157 159/159/159 156/156/156
f 156/156/156 159/159/159 158/158/158
f 160/160/160 157/157/157 158/158/158
f 157/157/157 160/160/160 159/159/159
f 158/158/158 159/159/159 161/161/161
f 161/161/161 160/160/160 158/158/158
f 160/160/160 162/162/162 159/159/159
f 159/159/159 162/162/162 161/161/161
f 163/163/163 160/160/160 161/161/161
f 160/160/160 163/163/163 162/162/162
f 161/161/161 162/162/162 164/164/164
f 164/164/164 163/163/163 161/161/161
f 163/163/163 165/165/165 162/162/162
f 162/162/162 165/165/165 164/164/164
f 166/166/166 163/163/163 164/164/164
f 163/163/163 166/166/166 165/165/165
f 164/164/164 165/165/165 167/167/167
f 167/167/167 166/166/166 164/164/164
f 166/166/166 168/168/168 165/165/165
f 165/165/165 168/168/168 167/167/167
f 168/168/168 166/166/166 169/169/169
f 167/167/167 168/168/168 170/170/170
f 168/168/168 169/169/169 170/170/170
f 171/171/171 166/166/166 167/167/167
f 170/170/170 171/171/171 167/167/167
f 166/166/166 171/171/171 169/169/169
f 170/170/170 169/169/169 172/172/172
f 169/169/169 171/171/171 173/173/173
f 169/169/169 173/173/173 172/172/172
f 174/174/174 171/171/171 170/170/170
f 172/172/172 174/174/174 170/170/170
f 171/171/171 174/174/174 173/173/173
f 172/172/172 173/173/173 175/175/175
f 173/173/173 174/174/174 176/176/176
f 173/173/173 176/176/176 175/175/175
f 177/177/177 174/174/174 172/172/172
f 175/175/175 177/177/177 172/172/172
f 174/174/174 177/177/177 176/176/176
f 175/175/175 176/176/176 178/178/178
f 176/176/176 177/177/177 179/179/179
f 176/176/176 179/179/179 178/178/178
f 180/180/180 177/177/177 175/175/175
f 178/178/178 180/180/180 175/175/175
f 177/177/177 180/180/180 179/179/179
f 178/178/178 179/179/179 150/150/150
f 179/179/179 148/148/148 150/150/150
f 179/179/179 180/180/180 148/148/148
f 150/150/150 147/147/147 178/178/178
f 180/180/180 147/147/147 148/148/148
f 147/147/147 180/180/180 178/178/178
